<?xml version="1.0" encoding="UTF-8" standalone="no"?>
<!-- Created with Inkscape (http://www.inkscape.org/) -->

<svg
   width="2048"
   height="1152"
   viewBox="0 0 541.86665 304.8"
   version="1.1"
   id="svg1316"
   xml:space="preserve"
   inkscape:version="1.2.1 (9c6d41e410, 2022-07-14, custom)"
   sodipodi:docname="bannner.svg"
   inkscape:export-filename="banner.png"
   inkscape:export-xdpi="96"
   inkscape:export-ydpi="96"
   xmlns:inkscape="http://www.inkscape.org/namespaces/inkscape"
   xmlns:sodipodi="http://sodipodi.sourceforge.net/DTD/sodipodi-0.dtd"
   xmlns="http://www.w3.org/2000/svg"
   xmlns:svg="http://www.w3.org/2000/svg"><sodipodi:namedview
     id="namedview1318"
     pagecolor="#ffffff"
     bordercolor="#666666"
     borderopacity="1.0"
     inkscape:showpageshadow="2"
     inkscape:pageopacity="0.0"
     inkscape:pagecheckerboard="0"
     inkscape:deskcolor="#d1d1d1"
     inkscape:document-units="px"
     showgrid="false"
     inkscape:zoom="0.43331006"
     inkscape:cx="1025.8243"
     inkscape:cy="578.10797"
     inkscape:window-width="1900"
     inkscape:window-height="1036"
     inkscape:window-x="8"
     inkscape:window-y="32"
     inkscape:window-maximized="1"
     inkscape:current-layer="layer1" /><defs
     id="defs1313"><inkscape:path-effect
       effect="mirror_symmetry"
       start_point="226.8772,120.2782"
       end_point="226.8772,159.86288"
       center_point="226.8772,140.07054"
       id="path-effect900"
       is_visible="true"
       lpeversion="1.2"
       lpesatellites=""
       mode="vertical"
       discard_orig_path="false"
       fuse_paths="false"
       oposite_fuse="false"
       split_items="false"
       split_open="false"
       link_styles="false" /><inkscape:path-effect
       center_point="166.61179,178.44393"
       end_point="166.61179,183.8983"
       start_point="166.61179,172.98957"
       effect="mirror_symmetry"
       id="path-effect2383"
       is_visible="true"
       lpeversion="1.2"
       lpesatellites=""
       mode="vertical"
       discard_orig_path="false"
       fuse_paths="false"
       oposite_fuse="false"
       split_items="false"
       split_open="false"
       link_styles="false" /><inkscape:path-effect
       center_point="112.19957,101.91908"
       end_point="112.19957,152.93455"
       start_point="112.19957,50.903624"
       effect="mirror_symmetry"
       id="path-effect2352"
       is_visible="true"
       lpeversion="1.2"
       lpesatellites=""
       mode="vertical"
       discard_orig_path="false"
       fuse_paths="false"
       oposite_fuse="false"
       split_items="false"
       split_open="false"
       link_styles="false" /><inkscape:path-effect
       effect="mirror_symmetry"
       start_point="120.15,54.9"
       end_point="117.45,152.93455"
       center_point="112.19957,101.91908"
       id="path-effect2350"
       is_visible="true"
       lpeversion="1.2"
       lpesatellites=""
       mode="X"
       discard_orig_path="false"
       fuse_paths="false"
       oposite_fuse="false"
       split_items="false"
       split_open="false"
       link_styles="false" /></defs><g
     inkscape:label="Layer 1"
     inkscape:groupmode="layer"
     id="layer1"><rect
       style="font-variation-settings:normal;display:inline;opacity:1;vector-effect:none;fill:#242424;fill-opacity:1;fill-rule:evenodd;stroke-width:0.346908;stroke-linecap:butt;stroke-linejoin:miter;stroke-miterlimit:4;stroke-dasharray:none;stroke-dashoffset:0;stroke-opacity:1;-inkscape-stroke:none;stop-color:#000000;stop-opacity:1"
       id="rect1546"
       width="541.86664"
       height="304.79999"
       x="0"
       y="0"
       sodipodi:insensitive="true"
       inkscape:label="background" /><rect
       style="font-variation-settings:normal;display:none;opacity:0.101786;vector-effect:none;fill:#0000ff;fill-opacity:1;fill-rule:evenodd;stroke-width:0.264583;stroke-linecap:butt;stroke-linejoin:miter;stroke-miterlimit:4;stroke-dasharray:none;stroke-dashoffset:0;stroke-opacity:1;-inkscape-stroke:none;stop-color:#000000;stop-opacity:1"
       id="rect298"
       width="326.76041"
       height="89.429169"
       x="107.55312"
       y="107.68541"
       sodipodi:insensitive="true"
       inkscape:label="temp_space" /><text
       xml:space="preserve"
       style="font-size:19.3854px;line-height:1.25;font-family:sans-serif;text-align:center;writing-mode:tb-rl;text-anchor:middle;fill:#4a86e8;fill-opacity:1;stroke-width:0.227172"
       x="-164.61331"
       y="271.60214"
       id="text1594"
       transform="rotate(-90)"
       inkscape:label="logo"
       sodipodi:insensitive="true"><tspan
         sodipodi:role="line"
         style="font-style:normal;font-variant:normal;font-weight:bold;font-stretch:normal;font-size:19.3854px;font-family:monospace;-inkscape-font-specification:'monospace Bold';display:inline;fill:#4a86e8;fill-opacity:1;stroke-width:0.227172"
         x="-164.61331"
         y="271.60214"
         id="tspan2032">Mathbike</tspan></text><path
       id="path2328"
       style="display:inline;opacity:1;fill:#4a86e8;fill-opacity:1;stroke:#4a86e8;stroke-width:0.102811;stroke-opacity:1;paint-order:markers fill stroke"
       inkscape:label="ears"
       d="m 202.90098,120.27884 c -0.17481,0.005 -0.35824,0.037 -0.55134,0.10224 -0.65601,0.22168 -0.517,1.2849 -0.77549,1.92729 0.35393,0.94188 0.81924,1.841 1.0261,2.8351 1.0935,4.8499 1.52198,9.8181 2.10372,14.74727 0.62888,6.09762 1.38321,12.20388 1.4796,18.33901 0,2.17751 3.07949,2.17751 3.07949,0 -0.0916,-6.24106 -0.85613,-12.45242 -1.49584,-18.65498 -0.44873,-3.86252 -0.82587,-7.74435 -1.47599,-11.57956 0.65538,0.74964 1.31591,1.4956 1.98562,2.23724 4.69635,5.02557 9.57195,9.87833 14.35012,14.82526 0.50904,0.52876 1.01806,1.0575 1.52711,1.58626 1.5102,1.56871 3.72882,-0.56708 2.2186,-2.1358 -0.51022,-0.52997 -1.02051,-1.05989 -1.53073,-1.58986 -4.75443,-4.92231 -9.60519,-9.75176 -14.28013,-14.75048 -2.01888,-2.2334 -1.90776,-2.06178 -3.73148,-4.25355 -0.43916,-0.52778 -0.86897,-1.06326 -1.29976,-1.59789 -0.61256,-0.76022 -1.40595,-2.07134 -2.6296,-2.03755 z m 178.49149,0 c 0.17481,0.005 0.35824,0.037 0.55134,0.10224 0.65601,0.22168 0.517,1.2849 0.77549,1.92729 -0.35393,0.94188 -0.81924,1.841 -1.0261,2.8351 -1.0935,4.8499 -1.52198,9.8181 -2.10372,14.74727 -0.62888,6.09762 -1.38321,12.20388 -1.4796,18.33901 0,2.17751 -3.07949,2.17751 -3.07949,0 0.0916,-6.24106 0.85613,-12.45242 1.49584,-18.65498 0.44873,-3.86252 0.82587,-7.74435 1.47599,-11.57956 -0.65538,0.74964 -1.31591,1.4956 -1.98562,2.23724 -4.69635,5.02557 -9.57195,9.87833 -14.35012,14.82526 -0.50904,0.52876 -1.01806,1.0575 -1.52711,1.58626 -1.5102,1.56871 -3.72882,-0.56708 -2.2186,-2.1358 0.51022,-0.52997 1.02051,-1.05989 1.53073,-1.58986 4.75443,-4.92231 9.60519,-9.75176 14.28013,-14.75048 2.01888,-2.2334 1.90776,-2.06178 3.73148,-4.25355 0.43916,-0.52778 0.86897,-1.06326 1.29976,-1.59789 0.61256,-0.76022 1.40595,-2.07134 2.6296,-2.03755 z"
       inkscape:path-effect="#path-effect900"
       inkscape:original-d="m 202.90098,120.27884 c -0.17481,0.005 -0.35824,0.037 -0.55134,0.10224 -0.65601,0.22168 -0.517,1.2849 -0.77549,1.92729 0.35393,0.94188 0.81924,1.841 1.0261,2.8351 1.0935,4.8499 1.52198,9.8181 2.10372,14.74727 0.62888,6.09762 1.38321,12.20388 1.4796,18.33901 0,2.17751 3.07949,2.17751 3.07949,0 -0.0916,-6.24106 -0.85613,-12.45242 -1.49584,-18.65498 -0.44873,-3.86252 -0.82587,-7.74435 -1.47599,-11.57956 0.65538,0.74964 1.31591,1.4956 1.98562,2.23724 4.69635,5.02557 9.57195,9.87833 14.35012,14.82526 0.50904,0.52876 1.01806,1.0575 1.52711,1.58626 1.5102,1.56871 3.72882,-0.56708 2.2186,-2.1358 -0.51022,-0.52997 -1.02051,-1.05989 -1.53073,-1.58986 -4.75443,-4.92231 -9.60519,-9.75176 -14.28013,-14.75048 -2.01888,-2.2334 -1.90776,-2.06178 -3.73148,-4.25355 -0.43916,-0.52778 -0.86897,-1.06326 -1.29976,-1.59789 -0.61256,-0.76022 -1.40595,-2.07134 -2.6296,-2.03755 z"
       class="UnoptimicedTransforms"
       transform="matrix(0.66666677,0,0,0.66666677,76.168817,49.600592)"
       sodipodi:insensitive="true" /></g></svg>
