<?xml version="1.0" encoding="UTF-8" standalone="no"?>
<!-- Created with Inkscape (http://www.inkscape.org/) -->

<svg
   width="1000"
   height="1000"
   viewBox="0 0 264.58333 264.58333"
   version="1.1"
   id="svg5"
   xml:space="preserve"
   inkscape:version="1.2.1 (9c6d41e410, 2022-07-14, custom)"
   sodipodi:docname="logo.svg"
   inkscape:export-filename="logo.png"
   inkscape:export-xdpi="96"
   inkscape:export-ydpi="96"
   xmlns:inkscape="http://www.inkscape.org/namespaces/inkscape"
   xmlns:sodipodi="http://sodipodi.sourceforge.net/DTD/sodipodi-0.dtd"
   xmlns="http://www.w3.org/2000/svg"
   xmlns:svg="http://www.w3.org/2000/svg"><sodipodi:namedview
     id="namedview7"
     pagecolor="#ffffff"
     bordercolor="#666666"
     borderopacity="1.0"
     inkscape:showpageshadow="2"
     inkscape:pageopacity="0.0"
     inkscape:pagecheckerboard="0"
     inkscape:deskcolor="#d1d1d1"
     inkscape:document-units="px"
     showgrid="false"
     inkscape:zoom="0.20675"
     inkscape:cx="498.18621"
     inkscape:cy="529.62515"
     inkscape:window-width="1900"
     inkscape:window-height="1036"
     inkscape:window-x="8"
     inkscape:window-y="32"
     inkscape:window-maximized="1"
     inkscape:current-layer="layer1" /><defs
     id="defs2"><inkscape:path-effect
       center_point="166.61179,178.44393"
       end_point="166.61179,183.8983"
       start_point="166.61179,172.98957"
       effect="mirror_symmetry"
       id="path-effect2383"
       is_visible="true"
       lpeversion="1.2"
       lpesatellites=""
       mode="vertical"
       discard_orig_path="false"
       fuse_paths="false"
       oposite_fuse="false"
       split_items="false"
       split_open="false"
       link_styles="false" /><inkscape:path-effect
       center_point="112.19957,101.91908"
       end_point="112.19957,152.93455"
       start_point="112.19957,50.903624"
       effect="mirror_symmetry"
       id="path-effect2352"
       is_visible="true"
       lpeversion="1.2"
       lpesatellites=""
       mode="vertical"
       discard_orig_path="false"
       fuse_paths="false"
       oposite_fuse="false"
       split_items="false"
       split_open="false"
       link_styles="false" /><inkscape:path-effect
       effect="mirror_symmetry"
       start_point="120.15,54.9"
       end_point="117.45,152.93455"
       center_point="112.19957,101.91908"
       id="path-effect2350"
       is_visible="true"
       lpeversion="1.2"
       lpesatellites=""
       mode="X"
       discard_orig_path="false"
       fuse_paths="false"
       oposite_fuse="false"
       split_items="false"
       split_open="false"
       link_styles="false" /></defs><g
     inkscape:label="Layer 1"
     inkscape:groupmode="layer"
     id="layer1"><rect
       style="font-variation-settings:normal;display:none;opacity:1;vector-effect:none;fill:#242424;fill-opacity:1;fill-rule:evenodd;stroke-width:0.171747;stroke-linecap:butt;stroke-linejoin:miter;stroke-miterlimit:4;stroke-dasharray:none;stroke-dashoffset:0;stroke-opacity:1;-inkscape-stroke:none;stop-color:#000000;stop-opacity:1"
       id="rect1592"
       width="264.58334"
       height="264.58334"
       x="7.1054274e-15"
       y="0" /><text
       xml:space="preserve"
       style="font-style:normal;font-variant:normal;font-weight:bold;font-stretch:normal;font-size:91.7222px;line-height:1.25;font-family:monospace;-inkscape-font-specification:'monospace Bold';text-align:center;writing-mode:tb-rl;text-anchor:middle;display:none;fill:#4a86e8;fill-opacity:1;stroke-width:0.265;stroke-dasharray:none"
       x="-147.65514"
       y="132.29169"
       id="text1007"
       transform="rotate(-90)"><tspan
         sodipodi:role="line"
         id="tspan1005"
         style="font-style:normal;font-variant:normal;font-weight:bold;font-stretch:normal;font-size:91.7222px;font-family:monospace;-inkscape-font-specification:'monospace Bold';fill:#4a86e8;fill-opacity:1;stroke-width:0.265;stroke-dasharray:none"
         x="-147.65514"
         y="132.29169">+ -</tspan></text><rect
       style="font-variation-settings:normal;display:inline;opacity:1;vector-effect:none;fill:#f3f3f3;fill-opacity:1;fill-rule:evenodd;stroke-width:0.171747;stroke-linecap:butt;stroke-linejoin:miter;stroke-miterlimit:4;stroke-dasharray:none;stroke-dashoffset:0;stroke-opacity:1;-inkscape-stroke:none;stop-color:#000000;stop-opacity:1"
       id="rect1981"
       width="264.58334"
       height="264.58334"
       x="7.1054274e-15"
       y="0" /><path
       style="display:inline;opacity:1;fill:#4a86e8;fill-opacity:1;stroke:#4a86e8;stroke-width:0.264999;paint-order:markers fill stroke;stroke-opacity:1"
       id="path2328"
       d="M 66.798634,148.72505 C 66.56248,132.63843 64.592109,116.62889 62.943223,100.64146 61.430502,87.620442 60.243775,74.512664 57.368992,61.70256 c -0.560647,-2.92854 -1.932926,-5.569055 -2.950863,-8.337118 -0.55177,1.593717 -1.103538,3.187438 -1.655308,4.781155 -1.285943,0.117946 -3.184032,-0.747778 -3.857834,0.353838 -0.575421,0.940769 1.364237,1.733116 2.056077,2.591904 4.276757,5.308787 8.726535,10.408925 13.295543,15.468639 12.105055,12.953666 24.67203,25.461922 36.988003,38.212872 1.31208,1.3629 2.62416,2.7258 3.93625,4.0887 3.89265,4.04341 9.6109,-1.46164 5.71825,-5.50505 v 0 c -1.31511,-1.36603 -2.63021,-2.73207 -3.94532,-4.0981 C 94.69898,96.571902 82.196233,84.124235 70.146319,71.239776 64.942566,65.48307 65.228937,65.925559 60.528183,60.276155 59.396235,58.91577 58.288401,57.535465 57.178016,56.15742 c -1.804469,-2.239438 -4.217345,-6.33385 -8.199162,-4.988322 -1.690899,0.571387 -1.332532,3.311626 -1.9988,4.967439 0.912257,2.427747 2.111724,4.745495 2.64491,7.307839 2.818569,12.500874 3.923186,25.306199 5.422643,38.011404 1.620991,15.7169 3.565099,31.45567 3.813527,47.26927 0,5.61266 7.9375,5.61266 7.9375,0 z m 130.986066,0 c 0.23615,-16.08662 2.20652,-32.09616 3.85541,-48.08359 1.51272,-13.021018 2.69944,-26.128796 5.57423,-38.9389 0.56064,-2.92854 1.93292,-5.569055 2.95086,-8.337118 0.55177,1.593717 1.10354,3.187438 1.65531,4.781155 1.28594,0.117946 3.18403,-0.747778 3.85783,0.353838 0.57542,0.940769 -1.36423,1.733116 -2.05607,2.591904 -4.27676,5.308787 -8.72654,10.408925 -13.29555,15.468639 -12.10505,12.953666 -24.67203,25.461922 -36.988,38.212872 -1.31208,1.3629 -2.62416,2.7258 -3.93625,4.0887 -3.89265,4.04341 -9.6109,-1.46164 -5.71825,-5.50505 v 0 c 1.31511,-1.36603 2.63021,-2.73207 3.94532,-4.0981 12.25481,-12.687498 24.75756,-25.135165 36.80747,-38.019624 5.20375,-5.756706 4.91738,-5.314217 9.61814,-10.963621 1.13194,-1.360385 2.23978,-2.74069 3.35016,-4.118735 1.80447,-2.239438 4.21735,-6.33385 8.19917,-4.988322 1.69089,0.571387 1.33253,3.311626 1.9988,4.967439 -0.91226,2.427747 -2.11173,4.745495 -2.64491,7.307839 -2.81857,12.500874 -3.92319,25.306199 -5.42265,38.011404 -1.62099,15.7169 -3.5651,31.45567 -3.81352,47.26927 0,5.61266 -7.9375,5.61266 -7.9375,0 z"
       class="UnoptimicedTransforms"
       inkscape:path-effect="#path-effect2352"
       inkscape:original-d="M 66.798634,148.72505 C 66.56248,132.63843 64.592109,116.62889 62.943223,100.64146 61.430502,87.620442 60.243775,74.512664 57.368992,61.70256 c -0.560647,-2.92854 -1.932926,-5.569055 -2.950863,-8.337118 -0.55177,1.593717 -1.103538,3.187438 -1.655308,4.781155 -1.285943,0.117946 -3.184032,-0.747778 -3.857834,0.353838 -0.575421,0.940769 1.364237,1.733116 2.056077,2.591904 4.276757,5.308787 8.726535,10.408925 13.295543,15.468639 12.105055,12.953666 24.67203,25.461922 36.988003,38.212872 1.31208,1.3629 2.62416,2.7258 3.93625,4.0887 3.89265,4.04341 9.6109,-1.46164 5.71825,-5.50505 v 0 c -1.31511,-1.36603 -2.63021,-2.73207 -3.94532,-4.0981 C 94.69898,96.571902 82.196233,84.124235 70.146319,71.239776 64.942566,65.48307 65.228937,65.925559 60.528183,60.276155 59.396235,58.91577 58.288401,57.535465 57.178016,56.15742 c -1.804469,-2.239438 -4.217345,-6.33385 -8.199162,-4.988322 -1.690899,0.571387 -1.332532,3.311626 -1.9988,4.967439 0.912257,2.427747 2.111724,4.745495 2.64491,7.307839 2.818569,12.500874 3.923186,25.306199 5.422643,38.011404 1.620991,15.7169 3.565099,31.45567 3.813527,47.26927 0,5.61266 7.9375,5.61266 7.9375,0 z"
       inkscape:label="ears" /><path
       style="display:inline;opacity:1;fill:#4a86e8;fill-opacity:1;stroke:#4a86e8;stroke-width:0.264999;paint-order:markers fill stroke;stroke-opacity:1"
       id="path2344"
       d="m 149.93058,180.92707 c 3.15464,0.0882 6.16243,0.83497 9.1293,1.85153 0.62514,0.25131 1.25028,0.50262 1.87541,0.75393 5.21329,2.07934 8.15392,-5.29335 2.94063,-7.37269 v 0 c -0.7558,-0.29948 -1.51161,-0.59897 -2.26741,-0.89845 -3.79134,-1.27446 -7.65601,-2.19218 -11.67793,-2.27182 -5.61266,0 -5.61266,7.9375 0,7.9375 z m -35.27783,0 c -3.15464,0.0882 -6.16243,0.83497 -9.1293,1.85153 -0.62514,0.25131 -1.25028,0.50262 -1.87541,0.75393 -5.21329,2.07934 -8.15392,-5.29335 -2.94063,-7.37269 v 0 c 0.7558,-0.29948 1.51161,-0.59897 2.26741,-0.89845 3.79134,-1.27446 7.65601,-2.19218 11.67793,-2.27182 5.61266,0 5.61266,7.9375 0,7.9375 z"
       inkscape:label="eyes"
       class="UnoptimicedTransforms"
       inkscape:path-effect="#path-effect2383"
       inkscape:original-d="m 149.93058,180.92707 c 3.15464,0.0882 6.16243,0.83497 9.1293,1.85153 0.62514,0.25131 1.25028,0.50262 1.87541,0.75393 5.21329,2.07934 8.15392,-5.29335 2.94063,-7.37269 v 0 c -0.7558,-0.29948 -1.51161,-0.59897 -2.26741,-0.89845 -3.79134,-1.27446 -7.65601,-2.19218 -11.67793,-2.27182 -5.61266,0 -5.61266,7.9375 0,7.9375 z"
       transform="translate(0,-13.229169)" /><path
       style="display:inline;opacity:1;fill:#4a86e8;fill-opacity:1;stroke:#4a86e8;stroke-width:0.264999;paint-order:markers fill stroke;stroke-opacity:1"
       id="path2346"
       d="m 129.61032,199.22929 c -0.55564,0.75263 -1.25367,1.4186 -1.66692,2.2579 -1.2121,2.46167 -0.70885,6.83128 2.02827,8.20489 0.9479,0.4757 2.07631,0.43377 3.11446,0.65066 0.98857,-0.59329 2.15072,-0.96436 2.96572,-1.77986 1.81349,-1.81464 1.39691,-5.8088 0.01,-7.68077 -0.43321,-0.58475 -1.04269,-1.0155 -1.56404,-1.52325 -0.6463,-0.27839 -1.26036,-0.64868 -1.93891,-0.83518 -0.53821,-0.14793 -1.10908,-0.15052 -1.66721,-0.156 -0.38484,-0.004 -1.05908,-0.24619 -1.14741,0.1284 -1.84115,7.80783 -2.82935,6.77737 0.84351,8.42613 5.18301,2.15369 8.22879,-5.17619 3.04578,-7.32988 v 0 c -3.25732,-0.98122 -0.43889,9.28332 -3.94897,6.07818 -1.16604,-1.91457 0.74635,-2.56375 2.58738,-3.22341 0.74937,0.24666 1.57609,0.32673 2.24813,0.73998 1.60851,0.9891 0.75151,1.93356 -0.27327,2.48473 4.55554,-3.27857 -0.081,-9.72108 -4.63659,-6.44252 z"
       inkscape:label="mouth" /></g></svg>
